# File created by Blade
# Date/Time:  Thu Sep 25 17:43:48 2014
# Frame Rate: 120.000 fps
#------------------------------------------------------
:FULLY-SPECIFIED
:DEGREES
118
root -13.357867 32.682348 0.959767 -350.772973 -119.103316 10.791434
Spine -7.262948 9.641514 -2.925250
Head -18.027081 15.458287 7.163547
LeftShoulder -10.603891 16.443697 14.096805
LeftArm 36.984505 19.902163 -65.910484
LeftForeArm 22.791701 -0.000000 49.842063
LeftHand -35.228733 -0.000000 6.684651
LeftHandThumb1 -26.253704 0.000000 33.147579
RightShoulder -14.283516 12.429258 -21.305430
RightArm -16.858034 -19.143963 99.560144
RightForeArm -8.774056 -0.000000 15.343663
RightHand -6.254255 -0.000000 4.676187
RightHandThumb1 -24.326973 -0.000000 -32.862282
LeftUpLeg -28.814732 -4.871942 1.554013
LeftLeg 19.616679 -0.000000 -0.000000
LeftFoot -22.088712 27.957253 335.587029
LeftToeBase 5.093947 -0.000000 -0.000000
RightUpLeg -21.848437 5.624925 -7.396256
RightLeg 54.132196 -0.000000 -0.000000
RightFoot -12.900494 -35.585138 -9.643368
RightToeBase -2.799247 -0.000000 0.000000
119
root -13.544549 32.804088 0.979509 -351.041730 -118.926509 10.890187
Spine -6.780803 9.013569 -2.574455
Head -18.119179 15.946441 7.080987
LeftShoulder -10.373908 15.599370 14.865800
LeftArm 37.834670 20.122290 -66.654285
LeftForeArm 23.913182 0.000000 52.546534
LeftHand -35.366278 -0.000000 5.307513
LeftHandThumb1 -26.253704 0.000000 33.147579
RightShoulder -13.875707 12.534437 -21.455953
RightArm -16.360486 -20.156434 99.858250
RightForeArm -9.752473 -0.000000 16.318047
RightHand -6.843012 -0.000000 4.649591
RightHandThumb1 -24.326973 -0.000000 -32.862282
LeftUpLeg -27.631467 -5.968265 1.888604
LeftLeg 18.015006 -0.000000 -0.000000
LeftFoot -21.140209 28.388284 335.496741
LeftToeBase 4.804148 -0.000000 -0.000000
RightUpLeg -23.835716 6.681206 -6.577716
RightLeg 53.556970 -0.000000 -0.000000
RightFoot -13.715631 -35.107072 -8.542850
RightToeBase -2.977570 -0.000000 0.000000
120
root -13.727538 32.912968 0.994624 -351.571212 -118.656207 11.186491
Spine -6.155070 8.497334 -2.037738
Head -18.297163 16.156747 6.756091
LeftShoulder -9.934984 14.549793 15.562721
LeftArm 38.525267 20.491602 -67.224244
LeftForeArm 24.371677 -0.000000 54.964939
LeftHand -35.373210 -0.000000 4.734580
LeftHandThumb1 -26.253704 0.000000 33.147579
RightShoulder -13.596207 12.563985 -21.775360
RightArm -15.874855 -21.344240 100.038008
RightForeArm -10.816014 -0.000000 17.146064
RightHand -6.972097 -0.000000 4.587129
RightHandThumb1 -24.326973 -0.000000 -32.862282
LeftUpLeg -26.492559 -6.824846 2.203737
LeftLeg 16.734615 -0.000000 -0.000000
LeftFoot -20.251862 28.494284 335.518136
LeftToeBase 4.539267 -0.000000 -0.000000
RightUpLeg -25.610935 7.398456 -5.693826
RightLeg 52.881381 -0.000000 -0.000000
RightFoot -13.968823 -34.215982 -8.374023
RightToeBase -3.245252 -0.000000 0.000000
121
root -13.914651 33.012345 1.019529 -352.041852 -118.363462 11.462992
Spine -5.607300 8.110509 -1.465096
Head -18.453436 16.226947 6.345271
LeftShoulder -9.425259 13.543716 16.104149
LeftArm 39.333399 20.983824 -67.504191
LeftForeArm 24.963882 -0.000000 57.039482
LeftHand -35.094851 -0.000000 4.766887
LeftHandThumb1 -26.253704 0.000000 33.147579
RightShoulder -13.459743 12.485599 -22.197551
RightArm -15.372109 -22.713023 100.054386
RightForeArm -11.694515 -0.000000 17.972928
RightHand -7.102326 -0.000000 4.533428
RightHandThumb1 -24.326973 -0.000000 -32.862282
LeftUpLeg -25.616954 -6.594326 2.093514
LeftLeg 15.953620 -0.000000 -0.000000
LeftFoot -19.029694 27.626480 335.929231
LeftToeBase 4.053275 -0.000000 -0.000000
RightUpLeg -27.328659 7.845059 -4.900059
RightLeg 52.090102 -0.000000 -0.000000
RightFoot -14.582555 -32.890554 -8.203012
RightToeBase -3.532079 -0.000000 0.000000
